<svg xmlns="http://www.w3.org/2000/svg" version="1.1" xmlns:xlink="http://www.w3.org/1999/xlink" xmlns:svgjs="http://svgjs.dev/svgjs" width="1440" height="560" preserveAspectRatio="none" viewBox="0 0 1440 560"><g mask="url(&quot;#SvgjsMask1008&quot;)" fill="none"><rect width="1440" height="560" x="0" y="0" fill="#0e2a47"></rect><path d="M-49.95 401.79L-49.95 401.79" stroke="#132e65" stroke-width="1.5"></path><path d="M-49.95 401.79L-85.29 493.47" stroke="#132e65" stroke-width="1.5"></path><path d="M-85.29 493.47L-85.29 493.47" stroke="#132e65" stroke-width="1.5"></path><path d="M-85.29 493.47L75.31 489.78" stroke="#132e65" stroke-width="1.5"></path><path d="M-85.29 493.47L-59.87 664.15" stroke="#132e65" stroke-width="1.5"></path><path d="M-59.87 664.15L-59.87 664.15" stroke="#132e65" stroke-width="1.5"></path><path d="M-59.87 664.15L82.27 654.51" stroke="#132e65" stroke-width="1.5"></path><path d="M-59.87 664.15L75.31 489.78" stroke="#132e65" stroke-width="1.5"></path><path d="M-59.87 664.15L-49.95 401.79" stroke="#132e65" stroke-width="1.5"></path><path d="M79.27 394.81L79.27 394.81" stroke="#132e65" stroke-width="1.5"></path><path d="M79.27 394.81L75.31 489.78" stroke="#132e65" stroke-width="1.5"></path><path d="M75.31 489.78L75.31 489.78" stroke="#132e65" stroke-width="1.5"></path><path d="M75.31 489.78L216.99 496.2" stroke="#132e65" stroke-width="1.5"></path><path d="M75.31 489.78L-49.95 401.79" stroke="#132e65" stroke-width="1.5"></path><path d="M75.31 489.78L82.27 654.51" stroke="#132e65" stroke-width="1.5"></path><path d="M82.27 654.51L82.27 654.51" stroke="#132e65" stroke-width="1.5"></path><path d="M82.27 654.51L212.34 696.31" stroke="#132e65" stroke-width="1.5"></path><path d="M260.61 370.43L260.61 370.43" stroke="#132e65" stroke-width="1.5"></path><path d="M260.61 370.43L371.53 382.82" stroke="#132e65" stroke-width="1.5"></path><path d="M260.61 370.43L216.99 496.2" stroke="#132e65" stroke-width="1.5"></path><path d="M260.61 370.43L354.82 525.08" stroke="#132e65" stroke-width="1.5"></path><path d="M216.99 496.2L216.99 496.2" stroke="#132e65" stroke-width="1.5"></path><path d="M216.99 496.2L354.82 525.08" stroke="#132e65" stroke-width="1.5"></path><path d="M212.34 696.31L212.34 696.31" stroke="#132e65" stroke-width="1.5"></path><path d="M212.34 696.31L383.78 658.87" stroke="#132e65" stroke-width="1.5"></path><path d="M212.34 696.31L216.99 496.2" stroke="#132e65" stroke-width="1.5"></path><path d="M212.34 696.31L354.82 525.08" stroke="#132e65" stroke-width="1.5"></path><path d="M371.53 382.82L371.53 382.82" stroke="#132e65" stroke-width="1.5"></path><path d="M371.53 382.82L354.82 525.08" stroke="#132e65" stroke-width="1.5"></path><path d="M371.53 382.82L522.41 365.4" stroke="#132e65" stroke-width="1.5"></path><path d="M371.53 382.82L216.99 496.2" stroke="#132e65" stroke-width="1.5"></path><path d="M371.53 382.82L548.92 259.65" stroke="#132e65" stroke-width="1.5"></path><path d="M354.82 525.08L354.82 525.08" stroke="#132e65" stroke-width="1.5"></path><path d="M354.82 525.08L383.78 658.87" stroke="#132e65" stroke-width="1.5"></path><path d="M354.82 525.08L554.76 508.6" stroke="#132e65" stroke-width="1.5"></path><path d="M354.82 525.08L505.81 669.1" stroke="#132e65" stroke-width="1.5"></path><path d="M383.78 658.87L383.78 658.87" stroke="#132e65" stroke-width="1.5"></path><path d="M383.78 658.87L505.81 669.1" stroke="#132e65" stroke-width="1.5"></path><path d="M548.92 259.65L548.92 259.65" stroke="#132e65" stroke-width="1.5"></path><path d="M548.92 259.65L522.41 365.4" stroke="#132e65" stroke-width="1.5"></path><path d="M548.92 259.65L645.2 364.81" stroke="#132e65" stroke-width="1.5"></path><path d="M548.92 259.65L692.13 234.78" stroke="#132e65" stroke-width="1.5"></path><path d="M522.41 365.4L522.41 365.4" stroke="#132e65" stroke-width="1.5"></path><path d="M522.41 365.4L645.2 364.81" stroke="#132e65" stroke-width="1.5"></path><path d="M554.76 508.6L554.76 508.6" stroke="#132e65" stroke-width="1.5"></path><path d="M554.76 508.6L522.41 365.4" stroke="#132e65" stroke-width="1.5"></path><path d="M554.76 508.6L711.99 489.99" stroke="#132e65" stroke-width="1.5"></path><path d="M554.76 508.6L505.81 669.1" stroke="#132e65" stroke-width="1.5"></path><path d="M554.76 508.6L645.2 364.81" stroke="#132e65" stroke-width="1.5"></path><path d="M505.81 669.1L505.81 669.1" stroke="#132e65" stroke-width="1.5"></path><path d="M505.81 669.1L707.33 710.66" stroke="#132e65" stroke-width="1.5"></path><path d="M505.81 669.1L711.99 489.99" stroke="#132e65" stroke-width="1.5"></path><path d="M692.13 234.78L692.13 234.78" stroke="#132e65" stroke-width="1.5"></path><path d="M692.13 234.78L793.17 244.55" stroke="#132e65" stroke-width="1.5"></path><path d="M692.13 234.78L645.2 364.81" stroke="#132e65" stroke-width="1.5"></path><path d="M692.13 234.78L791.07 404.63" stroke="#132e65" stroke-width="1.5"></path><path d="M645.2 364.81L645.2 364.81" stroke="#132e65" stroke-width="1.5"></path><path d="M645.2 364.81L711.99 489.99" stroke="#132e65" stroke-width="1.5"></path><path d="M645.2 364.81L791.07 404.63" stroke="#132e65" stroke-width="1.5"></path><path d="M711.99 489.99L711.99 489.99" stroke="#132e65" stroke-width="1.5"></path><path d="M711.99 489.99L791.07 404.63" stroke="#132e65" stroke-width="1.5"></path><path d="M711.99 489.99L859.9 499.14" stroke="#132e65" stroke-width="1.5"></path><path d="M711.99 489.99L813.94 666.04" stroke="#132e65" stroke-width="1.5"></path><path d="M707.33 710.66L707.33 710.66" stroke="#132e65" stroke-width="1.5"></path><path d="M707.33 710.66L813.94 666.04" stroke="#132e65" stroke-width="1.5"></path><path d="M707.33 710.66L711.99 489.99" stroke="#132e65" stroke-width="1.5"></path><path d="M707.33 710.66L950.78 666.12" stroke="#132e65" stroke-width="1.5"></path><path d="M793.17 244.55L793.17 244.55" stroke="#132e65" stroke-width="1.5"></path><path d="M793.17 244.55L791.07 404.63" stroke="#132e65" stroke-width="1.5"></path><path d="M791.07 404.63L791.07 404.63" stroke="#132e65" stroke-width="1.5"></path><path d="M791.07 404.63L859.9 499.14" stroke="#132e65" stroke-width="1.5"></path><path d="M859.9 499.14L859.9 499.14" stroke="#132e65" stroke-width="1.5"></path><path d="M859.9 499.14L982.27 510.9" stroke="#132e65" stroke-width="1.5"></path><path d="M813.94 666.04L813.94 666.04" stroke="#132e65" stroke-width="1.5"></path><path d="M813.94 666.04L950.78 666.12" stroke="#132e65" stroke-width="1.5"></path><path d="M813.94 666.04L859.9 499.14" stroke="#132e65" stroke-width="1.5"></path><path d="M813.94 666.04L982.27 510.9" stroke="#132e65" stroke-width="1.5"></path><path d="M1009.1 -58.59L1009.1 -58.59" stroke="#132e65" stroke-width="1.5"></path><path d="M1009.1 -58.59L1147.85 -80.25" stroke="#132e65" stroke-width="1.5"></path><path d="M1009.1 -58.59L1007.88 107.33" stroke="#132e65" stroke-width="1.5"></path><path d="M1009.1 -58.59L1125.57 74.82" stroke="#132e65" stroke-width="1.5"></path><path d="M1009.1 -58.59L981.92 201.25" stroke="#132e65" stroke-width="1.5"></path><path d="M1009.1 -58.59L1249 76.64" stroke="#132e65" stroke-width="1.5"></path><path d="M1007.88 107.33L1007.88 107.33" stroke="#132e65" stroke-width="1.5"></path><path d="M1007.88 107.33L981.92 201.25" stroke="#132e65" stroke-width="1.5"></path><path d="M1007.88 107.33L1125.57 74.82" stroke="#132e65" stroke-width="1.5"></path><path d="M1007.88 107.33L1156.1 246.05" stroke="#132e65" stroke-width="1.5"></path><path d="M1007.88 107.33L1147.85 -80.25" stroke="#132e65" stroke-width="1.5"></path><path d="M981.92 201.25L981.92 201.25" stroke="#132e65" stroke-width="1.5"></path><path d="M981.92 201.25L1156.1 246.05" stroke="#132e65" stroke-width="1.5"></path><path d="M981.92 201.25L1125.57 74.82" stroke="#132e65" stroke-width="1.5"></path><path d="M981.92 201.25L793.17 244.55" stroke="#132e65" stroke-width="1.5"></path><path d="M989.41 400.26L989.41 400.26" stroke="#132e65" stroke-width="1.5"></path><path d="M989.41 400.26L982.27 510.9" stroke="#132e65" stroke-width="1.5"></path><path d="M989.41 400.26L859.9 499.14" stroke="#132e65" stroke-width="1.5"></path><path d="M989.41 400.26L1154.88 362.67" stroke="#132e65" stroke-width="1.5"></path><path d="M989.41 400.26L1145.01 507.33" stroke="#132e65" stroke-width="1.5"></path><path d="M989.41 400.26L791.07 404.63" stroke="#132e65" stroke-width="1.5"></path><path d="M989.41 400.26L981.92 201.25" stroke="#132e65" stroke-width="1.5"></path><path d="M982.27 510.9L982.27 510.9" stroke="#132e65" stroke-width="1.5"></path><path d="M950.78 666.12L950.78 666.12" stroke="#132e65" stroke-width="1.5"></path><path d="M950.78 666.12L982.27 510.9" stroke="#132e65" stroke-width="1.5"></path><path d="M950.78 666.12L1131.64 641.2" stroke="#132e65" stroke-width="1.5"></path><path d="M950.78 666.12L859.9 499.14" stroke="#132e65" stroke-width="1.5"></path><path d="M950.78 666.12L1145.01 507.33" stroke="#132e65" stroke-width="1.5"></path><path d="M1147.85 -80.25L1147.85 -80.25" stroke="#132e65" stroke-width="1.5"></path><path d="M1147.85 -80.25L1125.57 74.82" stroke="#132e65" stroke-width="1.5"></path><path d="M1147.85 -80.25L1310.79 -64.13" stroke="#132e65" stroke-width="1.5"></path><path d="M1147.85 -80.25L1249 76.64" stroke="#132e65" stroke-width="1.5"></path><path d="M1125.57 74.82L1125.57 74.82" stroke="#132e65" stroke-width="1.5"></path><path d="M1125.57 74.82L1249 76.64" stroke="#132e65" stroke-width="1.5"></path><path d="M1125.57 74.82L1156.1 246.05" stroke="#132e65" stroke-width="1.5"></path><path d="M1156.1 246.05L1156.1 246.05" stroke="#132e65" stroke-width="1.5"></path><path d="M1156.1 246.05L1154.88 362.67" stroke="#132e65" stroke-width="1.5"></path><path d="M1156.1 246.05L1302.6 246.55" stroke="#132e65" stroke-width="1.5"></path><path d="M1156.1 246.05L1249 76.64" stroke="#132e65" stroke-width="1.5"></path><path d="M1156.1 246.05L1278.94 407.36" stroke="#132e65" stroke-width="1.5"></path><path d="M1154.88 362.67L1154.88 362.67" stroke="#132e65" stroke-width="1.5"></path><path d="M1154.88 362.67L1278.94 407.36" stroke="#132e65" stroke-width="1.5"></path><path d="M1145.01 507.33L1145.01 507.33" stroke="#132e65" stroke-width="1.5"></path><path d="M1145.01 507.33L1131.64 641.2" stroke="#132e65" stroke-width="1.5"></path><path d="M1145.01 507.33L1154.88 362.67" stroke="#132e65" stroke-width="1.5"></path><path d="M1145.01 507.33L1300.3 514.19" stroke="#132e65" stroke-width="1.5"></path><path d="M1145.01 507.33L982.27 510.9" stroke="#132e65" stroke-width="1.5"></path><path d="M1145.01 507.33L1278.94 407.36" stroke="#132e65" stroke-width="1.5"></path><path d="M1131.64 641.2L1131.64 641.2" stroke="#132e65" stroke-width="1.5"></path><path d="M1131.64 641.2L1287.17 642.31" stroke="#132e65" stroke-width="1.5"></path><path d="M1131.64 641.2L982.27 510.9" stroke="#132e65" stroke-width="1.5"></path><path d="M1310.79 -64.13L1310.79 -64.13" stroke="#132e65" stroke-width="1.5"></path><path d="M1310.79 -64.13L1447.88 -52.19" stroke="#132e65" stroke-width="1.5"></path><path d="M1310.79 -64.13L1401.62 59.68" stroke="#132e65" stroke-width="1.5"></path><path d="M1310.79 -64.13L1249 76.64" stroke="#132e65" stroke-width="1.5"></path><path d="M1249 76.64L1249 76.64" stroke="#132e65" stroke-width="1.5"></path><path d="M1249 76.64L1401.62 59.68" stroke="#132e65" stroke-width="1.5"></path><path d="M1249 76.64L1302.6 246.55" stroke="#132e65" stroke-width="1.5"></path><path d="M1302.6 246.55L1302.6 246.55" stroke="#132e65" stroke-width="1.5"></path><path d="M1302.6 246.55L1278.94 407.36" stroke="#132e65" stroke-width="1.5"></path><path d="M1302.6 246.55L1409.07 373.82" stroke="#132e65" stroke-width="1.5"></path><path d="M1278.94 407.36L1278.94 407.36" stroke="#132e65" stroke-width="1.5"></path><path d="M1278.94 407.36L1300.3 514.19" stroke="#132e65" stroke-width="1.5"></path><path d="M1278.94 407.36L1409.07 373.82" stroke="#132e65" stroke-width="1.5"></path><path d="M1300.3 514.19L1300.3 514.19" stroke="#132e65" stroke-width="1.5"></path><path d="M1300.3 514.19L1287.17 642.31" stroke="#132e65" stroke-width="1.5"></path><path d="M1287.17 642.31L1287.17 642.31" stroke="#132e65" stroke-width="1.5"></path><path d="M1287.17 642.31L1451.52 676.11" stroke="#132e65" stroke-width="1.5"></path><path d="M1287.17 642.31L1145.01 507.33" stroke="#132e65" stroke-width="1.5"></path><path d="M1287.17 642.31L1278.94 407.36" stroke="#132e65" stroke-width="1.5"></path><path d="M1287.17 642.31L1545.36 521.44" stroke="#132e65" stroke-width="1.5"></path><path d="M1447.88 -52.19L1447.88 -52.19" stroke="#132e65" stroke-width="1.5"></path><path d="M1447.88 -52.19L1401.62 59.68" stroke="#132e65" stroke-width="1.5"></path><path d="M1401.62 59.68L1401.62 59.68" stroke="#132e65" stroke-width="1.5"></path><path d="M1401.62 59.68L1550.59 51.48" stroke="#132e65" stroke-width="1.5"></path><path d="M1409.07 373.82L1409.07 373.82" stroke="#132e65" stroke-width="1.5"></path><path d="M1409.07 373.82L1300.3 514.19" stroke="#132e65" stroke-width="1.5"></path><path d="M1409.07 373.82L1601.47 407.23" stroke="#132e65" stroke-width="1.5"></path><path d="M1451.52 676.11L1451.52 676.11" stroke="#132e65" stroke-width="1.5"></path><path d="M1451.52 676.11L1610.64 674.56" stroke="#132e65" stroke-width="1.5"></path><path d="M1584.71 -104.93L1584.71 -104.93" stroke="#132e65" stroke-width="1.5"></path><path d="M1584.71 -104.93L1447.88 -52.19" stroke="#132e65" stroke-width="1.5"></path><path d="M1584.71 -104.93L1550.59 51.48" stroke="#132e65" stroke-width="1.5"></path><path d="M1550.59 51.48L1550.59 51.48" stroke="#132e65" stroke-width="1.5"></path><path d="M1550.59 51.48L1563.35 188.17" stroke="#132e65" stroke-width="1.5"></path><path d="M1550.59 51.48L1447.88 -52.19" stroke="#132e65" stroke-width="1.5"></path><path d="M1550.59 51.48L1310.79 -64.13" stroke="#132e65" stroke-width="1.5"></path><path d="M1550.59 51.48L1249 76.64" stroke="#132e65" stroke-width="1.5"></path><path d="M1563.35 188.17L1563.35 188.17" stroke="#132e65" stroke-width="1.5"></path><path d="M1563.35 188.17L1401.62 59.68" stroke="#132e65" stroke-width="1.5"></path><path d="M1601.47 407.23L1601.47 407.23" stroke="#132e65" stroke-width="1.5"></path><path d="M1601.47 407.23L1545.36 521.44" stroke="#132e65" stroke-width="1.5"></path><path d="M1601.47 407.23L1563.35 188.17" stroke="#132e65" stroke-width="1.5"></path><path d="M1601.47 407.23L1610.64 674.56" stroke="#132e65" stroke-width="1.5"></path><path d="M1601.47 407.23L1451.52 676.11" stroke="#132e65" stroke-width="1.5"></path><path d="M1545.36 521.44L1545.36 521.44" stroke="#132e65" stroke-width="1.5"></path><path d="M1545.36 521.44L1610.64 674.56" stroke="#132e65" stroke-width="1.5"></path><path d="M1545.36 521.44L1451.52 676.11" stroke="#132e65" stroke-width="1.5"></path><path d="M1545.36 521.44L1409.07 373.82" stroke="#132e65" stroke-width="1.5"></path><path d="M1545.36 521.44L1300.3 514.19" stroke="#132e65" stroke-width="1.5"></path><path d="M1610.64 674.56L1610.64 674.56" stroke="#132e65" stroke-width="1.5"></path><path d="M1610.64 674.56L1287.17 642.31" stroke="#132e65" stroke-width="1.5"></path><path d="M1610.64 674.56L1300.3 514.19" stroke="#132e65" stroke-width="1.5"></path><path d="M1610.64 674.56L1409.07 373.82" stroke="#132e65" stroke-width="1.5"></path><circle r="5" cx="-49.95" cy="401.79" fill="#132e65"></circle><circle r="5" cx="-85.29" cy="493.47" fill="#132e65"></circle><circle r="5" cx="-59.87" cy="664.15" fill="#132e65"></circle><circle r="5" cx="79.27" cy="394.81" fill="#132e65"></circle><circle r="5" cx="75.31" cy="489.78" fill="#132e65"></circle><circle r="5" cx="82.27" cy="654.51" fill="#132e65"></circle><circle r="5" cx="260.61" cy="370.43" fill="#132e65"></circle><circle r="5" cx="216.99" cy="496.2" fill="#132e65"></circle><circle r="5" cx="212.34" cy="696.31" fill="#132e65"></circle><circle r="5" cx="371.53" cy="382.82" fill="#132e65"></circle><circle r="5" cx="354.82" cy="525.08" fill="#132e65"></circle><circle r="5" cx="383.78" cy="658.87" fill="#132e65"></circle><circle r="5" cx="548.92" cy="259.65" fill="#132e65"></circle><circle r="5" cx="522.41" cy="365.4" fill="#132e65"></circle><circle r="5" cx="554.76" cy="508.6" fill="#132e65"></circle><circle r="5" cx="505.81" cy="669.1" fill="#132e65"></circle><circle r="5" cx="692.13" cy="234.78" fill="#132e65"></circle><circle r="5" cx="645.2" cy="364.81" fill="#132e65"></circle><circle r="5" cx="711.99" cy="489.99" fill="#132e65"></circle><circle r="5" cx="707.33" cy="710.66" fill="#132e65"></circle><circle r="5" cx="793.17" cy="244.55" fill="#132e65"></circle><circle r="5" cx="791.07" cy="404.63" fill="#132e65"></circle><circle r="5" cx="859.9" cy="499.14" fill="#132e65"></circle><circle r="5" cx="813.94" cy="666.04" fill="#132e65"></circle><circle r="5" cx="1009.1" cy="-58.59" fill="#132e65"></circle><circle r="5" cx="1007.88" cy="107.33" fill="#132e65"></circle><circle r="5" cx="981.92" cy="201.25" fill="#132e65"></circle><circle r="5" cx="989.41" cy="400.26" fill="#132e65"></circle><circle r="5" cx="982.27" cy="510.9" fill="#132e65"></circle><circle r="5" cx="950.78" cy="666.12" fill="#132e65"></circle><circle r="5" cx="1147.85" cy="-80.25" fill="#132e65"></circle><circle r="5" cx="1125.57" cy="74.82" fill="#132e65"></circle><circle r="5" cx="1156.1" cy="246.05" fill="#132e65"></circle><circle r="5" cx="1154.88" cy="362.67" fill="#132e65"></circle><circle r="5" cx="1145.01" cy="507.33" fill="#132e65"></circle><circle r="5" cx="1131.64" cy="641.2" fill="#132e65"></circle><circle r="5" cx="1310.79" cy="-64.13" fill="#132e65"></circle><circle r="5" cx="1249" cy="76.64" fill="#132e65"></circle><circle r="5" cx="1302.6" cy="246.55" fill="#132e65"></circle><circle r="5" cx="1278.94" cy="407.36" fill="#132e65"></circle><circle r="5" cx="1300.3" cy="514.19" fill="#132e65"></circle><circle r="5" cx="1287.17" cy="642.31" fill="#132e65"></circle><circle r="5" cx="1447.88" cy="-52.19" fill="#132e65"></circle><circle r="5" cx="1401.62" cy="59.68" fill="#132e65"></circle><circle r="5" cx="1409.07" cy="373.82" fill="#132e65"></circle><circle r="5" cx="1451.52" cy="676.11" fill="#132e65"></circle><circle r="5" cx="1584.71" cy="-104.93" fill="#132e65"></circle><circle r="5" cx="1550.59" cy="51.48" fill="#132e65"></circle><circle r="5" cx="1563.35" cy="188.17" fill="#132e65"></circle><circle r="5" cx="1601.47" cy="407.23" fill="#132e65"></circle><circle r="5" cx="1545.36" cy="521.44" fill="#132e65"></circle><circle r="5" cx="1610.64" cy="674.56" fill="#132e65"></circle><path d="M-107.4 549.4L-107.4 549.4" stroke="hsl(228.5, 77.2%, 51.5%)" stroke-width="1.5"></path><path d="M-107.4 549.4L-50 641.03" stroke="hsl(228.5, 77.2%, 51.5%)" stroke-width="1.5"></path><path d="M-107.4 549.4L85.36 532.04" stroke="hsl(228.5, 77.2%, 51.5%)" stroke-width="1.5"></path><path d="M-107.4 549.4L86.2 706.05" stroke="hsl(228.5, 77.2%, 51.5%)" stroke-width="1.5"></path><path d="M85.36 532.04L85.36 532.04" stroke="hsl(228.5, 77.2%, 51.5%)" stroke-width="1.5"></path><path d="M85.36 532.04L189.25 503.35" stroke="hsl(228.5, 77.2%, 51.5%)" stroke-width="1.5"></path><path d="M85.36 532.04L197.43 639.72" stroke="hsl(228.5, 77.2%, 51.5%)" stroke-width="1.5"></path><path d="M85.36 532.04L-50 641.03" stroke="hsl(228.5, 77.2%, 51.5%)" stroke-width="1.5"></path><path d="M85.36 532.04L86.2 706.05" stroke="hsl(228.5, 77.2%, 51.5%)" stroke-width="1.5"></path><path d="M85.36 532.04L384.43 668.35" stroke="hsl(228.5, 77.2%, 51.5%)" stroke-width="1.5"></path><path d="M197.43 639.72L197.43 639.72" stroke="hsl(228.5, 77.2%, 51.5%)" stroke-width="1.5"></path><path d="M197.43 639.72L86.2 706.05" stroke="hsl(228.5, 77.2%, 51.5%)" stroke-width="1.5"></path><path d="M197.43 639.72L189.25 503.35" stroke="hsl(228.5, 77.2%, 51.5%)" stroke-width="1.5"></path><path d="M197.43 639.72L384.43 668.35" stroke="hsl(228.5, 77.2%, 51.5%)" stroke-width="1.5"></path><path d="M197.43 639.72L-50 641.03" stroke="hsl(228.5, 77.2%, 51.5%)" stroke-width="1.5"></path><path d="M197.43 639.72L-107.4 549.4" stroke="hsl(228.5, 77.2%, 51.5%)" stroke-width="1.5"></path><path d="M553.95 701.62L553.95 701.62" stroke="hsl(228.5, 77.2%, 51.5%)" stroke-width="1.5"></path><path d="M553.95 701.62L516.43 547.77" stroke="hsl(228.5, 77.2%, 51.5%)" stroke-width="1.5"></path><path d="M553.95 701.62L384.43 668.35" stroke="hsl(228.5, 77.2%, 51.5%)" stroke-width="1.5"></path><path d="M553.95 701.62L705.73 539.15" stroke="hsl(228.5, 77.2%, 51.5%)" stroke-width="1.5"></path><path d="M553.95 701.62L834.92 709.01" stroke="hsl(228.5, 77.2%, 51.5%)" stroke-width="1.5"></path><path d="M553.95 701.62L825.34 501.82" stroke="hsl(228.5, 77.2%, 51.5%)" stroke-width="1.5"></path><path d="M825.34 501.82L825.34 501.82" stroke="hsl(228.5, 77.2%, 51.5%)" stroke-width="1.5"></path><path d="M825.34 501.82L705.73 539.15" stroke="hsl(228.5, 77.2%, 51.5%)" stroke-width="1.5"></path><path d="M825.34 501.82L847.64 338.27" stroke="hsl(228.5, 77.2%, 51.5%)" stroke-width="1.5"></path><path d="M1111.1 258.17L1111.1 258.17" stroke="hsl(228.5, 77.2%, 51.5%)" stroke-width="1.5"></path><path d="M1111.1 258.17L1110.81 400.15" stroke="hsl(228.5, 77.2%, 51.5%)" stroke-width="1.5"></path><path d="M1111.1 258.17L1006.68 361.75" stroke="hsl(228.5, 77.2%, 51.5%)" stroke-width="1.5"></path><path d="M1110.81 400.15L1110.81 400.15" stroke="hsl(228.5, 77.2%, 51.5%)" stroke-width="1.5"></path><path d="M1110.81 400.15L1006.68 361.75" stroke="hsl(228.5, 77.2%, 51.5%)" stroke-width="1.5"></path><path d="M1110.81 400.15L1095.61 526.1" stroke="hsl(228.5, 77.2%, 51.5%)" stroke-width="1.5"></path><path d="M1095.61 526.1L1095.61 526.1" stroke="hsl(228.5, 77.2%, 51.5%)" stroke-width="1.5"></path><path d="M1095.61 526.1L1002.41 547.25" stroke="hsl(228.5, 77.2%, 51.5%)" stroke-width="1.5"></path><path d="M1095.61 526.1L1153.15 688.1" stroke="hsl(228.5, 77.2%, 51.5%)" stroke-width="1.5"></path><path d="M1095.61 526.1L1006.68 361.75" stroke="hsl(228.5, 77.2%, 51.5%)" stroke-width="1.5"></path><path d="M1095.61 526.1L949.32 676.42" stroke="hsl(228.5, 77.2%, 51.5%)" stroke-width="1.5"></path><path d="M1460.29 408.46L1460.29 408.46" stroke="hsl(228.5, 77.2%, 51.5%)" stroke-width="1.5"></path><path d="M1460.29 408.46L1602.57 390.44" stroke="hsl(228.5, 77.2%, 51.5%)" stroke-width="1.5"></path><path d="M1460.29 408.46L1399.03 554.51" stroke="hsl(228.5, 77.2%, 51.5%)" stroke-width="1.5"></path><path d="M1460.29 408.46L1573.87 259.28" stroke="hsl(228.5, 77.2%, 51.5%)" stroke-width="1.5"></path><path d="M1460.29 408.46L1608.39 554.27" stroke="hsl(228.5, 77.2%, 51.5%)" stroke-width="1.5"></path><path d="M1460.29 408.46L1252.52 366.45" stroke="hsl(228.5, 77.2%, 51.5%)" stroke-width="1.5"></path><path d="M-50 641.03L-50 641.03" stroke="hsl(228.5, 77.2%, 51.5%)" stroke-width="1.5"></path><path d="M-50 641.03L86.2 706.05" stroke="hsl(228.5, 77.2%, 51.5%)" stroke-width="1.5"></path><path d="M-50 641.03L189.25 503.35" stroke="hsl(228.5, 77.2%, 51.5%)" stroke-width="1.5"></path><path d="M86.2 706.05L86.2 706.05" stroke="hsl(228.5, 77.2%, 51.5%)" stroke-width="1.5"></path><path d="M86.2 706.05L189.25 503.35" stroke="hsl(228.5, 77.2%, 51.5%)" stroke-width="1.5"></path><path d="M86.2 706.05L384.43 668.35" stroke="hsl(228.5, 77.2%, 51.5%)" stroke-width="1.5"></path><path d="M189.25 503.35L189.25 503.35" stroke="hsl(228.5, 77.2%, 51.5%)" stroke-width="1.5"></path><path d="M384.43 668.35L384.43 668.35" stroke="hsl(228.5, 77.2%, 51.5%)" stroke-width="1.5"></path><path d="M384.43 668.35L516.43 547.77" stroke="hsl(228.5, 77.2%, 51.5%)" stroke-width="1.5"></path><path d="M384.43 668.35L189.25 503.35" stroke="hsl(228.5, 77.2%, 51.5%)" stroke-width="1.5"></path><path d="M516.43 547.77L516.43 547.77" stroke="hsl(228.5, 77.2%, 51.5%)" stroke-width="1.5"></path><path d="M516.43 547.77L705.73 539.15" stroke="hsl(228.5, 77.2%, 51.5%)" stroke-width="1.5"></path><path d="M516.43 547.77L703.48 370.75" stroke="hsl(228.5, 77.2%, 51.5%)" stroke-width="1.5"></path><path d="M703.48 370.75L703.48 370.75" stroke="hsl(228.5, 77.2%, 51.5%)" stroke-width="1.5"></path><path d="M703.48 370.75L847.64 338.27" stroke="hsl(228.5, 77.2%, 51.5%)" stroke-width="1.5"></path><path d="M703.48 370.75L705.73 539.15" stroke="hsl(228.5, 77.2%, 51.5%)" stroke-width="1.5"></path><path d="M703.48 370.75L825.34 501.82" stroke="hsl(228.5, 77.2%, 51.5%)" stroke-width="1.5"></path><path d="M705.73 539.15L705.73 539.15" stroke="hsl(228.5, 77.2%, 51.5%)" stroke-width="1.5"></path><path d="M847.64 338.27L847.64 338.27" stroke="hsl(228.5, 77.2%, 51.5%)" stroke-width="1.5"></path><path d="M847.64 338.27L1006.68 361.75" stroke="hsl(228.5, 77.2%, 51.5%)" stroke-width="1.5"></path><path d="M847.64 338.27L705.73 539.15" stroke="hsl(228.5, 77.2%, 51.5%)" stroke-width="1.5"></path><path d="M847.64 338.27L1002.41 547.25" stroke="hsl(228.5, 77.2%, 51.5%)" stroke-width="1.5"></path><path d="M834.92 709.01L834.92 709.01" stroke="hsl(228.5, 77.2%, 51.5%)" stroke-width="1.5"></path><path d="M834.92 709.01L949.32 676.42" stroke="hsl(228.5, 77.2%, 51.5%)" stroke-width="1.5"></path><path d="M834.92 709.01L825.34 501.82" stroke="hsl(228.5, 77.2%, 51.5%)" stroke-width="1.5"></path><path d="M1006.68 361.75L1006.68 361.75" stroke="hsl(228.5, 77.2%, 51.5%)" stroke-width="1.5"></path><path d="M1006.68 361.75L1002.41 547.25" stroke="hsl(228.5, 77.2%, 51.5%)" stroke-width="1.5"></path><path d="M1006.68 361.75L825.34 501.82" stroke="hsl(228.5, 77.2%, 51.5%)" stroke-width="1.5"></path><path d="M1002.41 547.25L1002.41 547.25" stroke="hsl(228.5, 77.2%, 51.5%)" stroke-width="1.5"></path><path d="M1002.41 547.25L949.32 676.42" stroke="hsl(228.5, 77.2%, 51.5%)" stroke-width="1.5"></path><path d="M1002.41 547.25L1110.81 400.15" stroke="hsl(228.5, 77.2%, 51.5%)" stroke-width="1.5"></path><path d="M1002.41 547.25L825.34 501.82" stroke="hsl(228.5, 77.2%, 51.5%)" stroke-width="1.5"></path><path d="M949.32 676.42L949.32 676.42" stroke="hsl(228.5, 77.2%, 51.5%)" stroke-width="1.5"></path><path d="M949.32 676.42L1153.15 688.1" stroke="hsl(228.5, 77.2%, 51.5%)" stroke-width="1.5"></path><path d="M1153.49 -64.7L1153.49 -64.7" stroke="hsl(228.5, 77.2%, 51.5%)" stroke-width="1.5"></path><path d="M1153.49 -64.7L1238.03 97.84" stroke="hsl(228.5, 77.2%, 51.5%)" stroke-width="1.5"></path><path d="M1153.49 -64.7L1401.13 -47.79" stroke="hsl(228.5, 77.2%, 51.5%)" stroke-width="1.5"></path><path d="M1153.49 -64.7L1452.64 44.84" stroke="hsl(228.5, 77.2%, 51.5%)" stroke-width="1.5"></path><path d="M1153.49 -64.7L1299.59 225.02" stroke="hsl(228.5, 77.2%, 51.5%)" stroke-width="1.5"></path><path d="M1153.49 -64.7L1111.1 258.17" stroke="hsl(228.5, 77.2%, 51.5%)" stroke-width="1.5"></path><path d="M1153.15 688.1L1153.15 688.1" stroke="hsl(228.5, 77.2%, 51.5%)" stroke-width="1.5"></path><path d="M1153.15 688.1L1310.67 640.69" stroke="hsl(228.5, 77.2%, 51.5%)" stroke-width="1.5"></path><path d="M1153.15 688.1L1306.03 557.82" stroke="hsl(228.5, 77.2%, 51.5%)" stroke-width="1.5"></path><path d="M1238.03 97.84L1238.03 97.84" stroke="hsl(228.5, 77.2%, 51.5%)" stroke-width="1.5"></path><path d="M1238.03 97.84L1299.59 225.02" stroke="hsl(228.5, 77.2%, 51.5%)" stroke-width="1.5"></path><path d="M1238.03 97.84L1388.8 199.79" stroke="hsl(228.5, 77.2%, 51.5%)" stroke-width="1.5"></path><path d="M1238.03 97.84L1111.1 258.17" stroke="hsl(228.5, 77.2%, 51.5%)" stroke-width="1.5"></path><path d="M1299.59 225.02L1299.59 225.02" stroke="hsl(228.5, 77.2%, 51.5%)" stroke-width="1.5"></path><path d="M1299.59 225.02L1388.8 199.79" stroke="hsl(228.5, 77.2%, 51.5%)" stroke-width="1.5"></path><path d="M1299.59 225.02L1252.52 366.45" stroke="hsl(228.5, 77.2%, 51.5%)" stroke-width="1.5"></path><path d="M1252.52 366.45L1252.52 366.45" stroke="hsl(228.5, 77.2%, 51.5%)" stroke-width="1.5"></path><path d="M1252.52 366.45L1110.81 400.15" stroke="hsl(228.5, 77.2%, 51.5%)" stroke-width="1.5"></path><path d="M1306.03 557.82L1306.03 557.82" stroke="hsl(228.5, 77.2%, 51.5%)" stroke-width="1.5"></path><path d="M1306.03 557.82L1310.67 640.69" stroke="hsl(228.5, 77.2%, 51.5%)" stroke-width="1.5"></path><path d="M1306.03 557.82L1399.03 554.51" stroke="hsl(228.5, 77.2%, 51.5%)" stroke-width="1.5"></path><path d="M1306.03 557.82L1396.8 658.91" stroke="hsl(228.5, 77.2%, 51.5%)" stroke-width="1.5"></path><path d="M1306.03 557.82L1252.52 366.45" stroke="hsl(228.5, 77.2%, 51.5%)" stroke-width="1.5"></path><path d="M1310.67 640.69L1310.67 640.69" stroke="hsl(228.5, 77.2%, 51.5%)" stroke-width="1.5"></path><path d="M1310.67 640.69L1396.8 658.91" stroke="hsl(228.5, 77.2%, 51.5%)" stroke-width="1.5"></path><path d="M1310.67 640.69L1399.03 554.51" stroke="hsl(228.5, 77.2%, 51.5%)" stroke-width="1.5"></path><path d="M1401.13 -47.79L1401.13 -47.79" stroke="hsl(228.5, 77.2%, 51.5%)" stroke-width="1.5"></path><path d="M1401.13 -47.79L1452.64 44.84" stroke="hsl(228.5, 77.2%, 51.5%)" stroke-width="1.5"></path><path d="M1401.13 -47.79L1541.65 -95.24" stroke="hsl(228.5, 77.2%, 51.5%)" stroke-width="1.5"></path><path d="M1401.13 -47.79L1546.99 43.43" stroke="hsl(228.5, 77.2%, 51.5%)" stroke-width="1.5"></path><path d="M1401.13 -47.79L1238.03 97.84" stroke="hsl(228.5, 77.2%, 51.5%)" stroke-width="1.5"></path><path d="M1401.13 -47.79L1388.8 199.79" stroke="hsl(228.5, 77.2%, 51.5%)" stroke-width="1.5"></path><path d="M1452.64 44.84L1452.64 44.84" stroke="hsl(228.5, 77.2%, 51.5%)" stroke-width="1.5"></path><path d="M1452.64 44.84L1546.99 43.43" stroke="hsl(228.5, 77.2%, 51.5%)" stroke-width="1.5"></path><path d="M1452.64 44.84L1541.65 -95.24" stroke="hsl(228.5, 77.2%, 51.5%)" stroke-width="1.5"></path><path d="M1388.8 199.79L1388.8 199.79" stroke="hsl(228.5, 77.2%, 51.5%)" stroke-width="1.5"></path><path d="M1388.8 199.79L1452.64 44.84" stroke="hsl(228.5, 77.2%, 51.5%)" stroke-width="1.5"></path><path d="M1388.8 199.79L1573.87 259.28" stroke="hsl(228.5, 77.2%, 51.5%)" stroke-width="1.5"></path><path d="M1388.8 199.79L1252.52 366.45" stroke="hsl(228.5, 77.2%, 51.5%)" stroke-width="1.5"></path><path d="M1399.03 554.51L1399.03 554.51" stroke="hsl(228.5, 77.2%, 51.5%)" stroke-width="1.5"></path><path d="M1399.03 554.51L1396.8 658.91" stroke="hsl(228.5, 77.2%, 51.5%)" stroke-width="1.5"></path><path d="M1396.8 658.91L1396.8 658.91" stroke="hsl(228.5, 77.2%, 51.5%)" stroke-width="1.5"></path><path d="M1396.8 658.91L1558.78 680.28" stroke="hsl(228.5, 77.2%, 51.5%)" stroke-width="1.5"></path><path d="M1396.8 658.91L1608.39 554.27" stroke="hsl(228.5, 77.2%, 51.5%)" stroke-width="1.5"></path><path d="M1541.65 -95.24L1541.65 -95.24" stroke="hsl(228.5, 77.2%, 51.5%)" stroke-width="1.5"></path><path d="M1541.65 -95.24L1546.99 43.43" stroke="hsl(228.5, 77.2%, 51.5%)" stroke-width="1.5"></path><path d="M1541.65 -95.24L1388.8 199.79" stroke="hsl(228.5, 77.2%, 51.5%)" stroke-width="1.5"></path><path d="M1541.65 -95.24L1573.87 259.28" stroke="hsl(228.5, 77.2%, 51.5%)" stroke-width="1.5"></path><path d="M1541.65 -95.24L1238.03 97.84" stroke="hsl(228.5, 77.2%, 51.5%)" stroke-width="1.5"></path><path d="M1546.99 43.43L1546.99 43.43" stroke="hsl(228.5, 77.2%, 51.5%)" stroke-width="1.5"></path><path d="M1546.99 43.43L1573.87 259.28" stroke="hsl(228.5, 77.2%, 51.5%)" stroke-width="1.5"></path><path d="M1573.87 259.28L1573.87 259.28" stroke="hsl(228.5, 77.2%, 51.5%)" stroke-width="1.5"></path><path d="M1573.87 259.28L1602.57 390.44" stroke="hsl(228.5, 77.2%, 51.5%)" stroke-width="1.5"></path><path d="M1602.57 390.44L1602.57 390.44" stroke="hsl(228.5, 77.2%, 51.5%)" stroke-width="1.5"></path><path d="M1602.57 390.44L1608.39 554.27" stroke="hsl(228.5, 77.2%, 51.5%)" stroke-width="1.5"></path><path d="M1602.57 390.44L1399.03 554.51" stroke="hsl(228.5, 77.2%, 51.5%)" stroke-width="1.5"></path><path d="M1602.57 390.44L1388.8 199.79" stroke="hsl(228.5, 77.2%, 51.5%)" stroke-width="1.5"></path><path d="M1602.57 390.44L1558.78 680.28" stroke="hsl(228.5, 77.2%, 51.5%)" stroke-width="1.5"></path><path d="M1608.39 554.27L1608.39 554.27" stroke="hsl(228.5, 77.2%, 51.5%)" stroke-width="1.5"></path><path d="M1608.39 554.27L1558.78 680.28" stroke="hsl(228.5, 77.2%, 51.5%)" stroke-width="1.5"></path><path d="M1608.39 554.27L1399.03 554.51" stroke="hsl(228.5, 77.2%, 51.5%)" stroke-width="1.5"></path><path d="M1558.78 680.28L1558.78 680.28" stroke="hsl(228.5, 77.2%, 51.5%)" stroke-width="1.5"></path><path d="M1558.78 680.28L1399.03 554.51" stroke="hsl(228.5, 77.2%, 51.5%)" stroke-width="1.5"></path><circle r="25" cx="-107.4" cy="549.4" fill="url(&quot;#SvgjsRadialGradient1009&quot;)"></circle><circle r="25" cx="85.36" cy="532.04" fill="url(&quot;#SvgjsRadialGradient1009&quot;)"></circle><circle r="25" cx="197.43" cy="639.72" fill="url(&quot;#SvgjsRadialGradient1009&quot;)"></circle><circle r="25" cx="553.95" cy="701.62" fill="url(&quot;#SvgjsRadialGradient1009&quot;)"></circle><circle r="25" cx="825.34" cy="501.82" fill="url(&quot;#SvgjsRadialGradient1009&quot;)"></circle><circle r="25" cx="1111.1" cy="258.17" fill="url(&quot;#SvgjsRadialGradient1009&quot;)"></circle><circle r="25" cx="1110.81" cy="400.15" fill="url(&quot;#SvgjsRadialGradient1009&quot;)"></circle><circle r="25" cx="1095.61" cy="526.1" fill="url(&quot;#SvgjsRadialGradient1009&quot;)"></circle><circle r="25" cx="1460.29" cy="408.46" fill="url(&quot;#SvgjsRadialGradient1009&quot;)"></circle><circle r="5" cx="-50" cy="641.03" fill="#8b9ad9"></circle><circle r="5" cx="86.2" cy="706.05" fill="#8b9ad9"></circle><circle r="5" cx="189.25" cy="503.35" fill="#8b9ad9"></circle><circle r="5" cx="384.43" cy="668.35" fill="#8b9ad9"></circle><circle r="5" cx="516.43" cy="547.77" fill="#8b9ad9"></circle><circle r="5" cx="703.48" cy="370.75" fill="#8b9ad9"></circle><circle r="5" cx="705.73" cy="539.15" fill="#8b9ad9"></circle><circle r="5" cx="847.64" cy="338.27" fill="#8b9ad9"></circle><circle r="5" cx="834.92" cy="709.01" fill="#8b9ad9"></circle><circle r="5" cx="1006.68" cy="361.75" fill="#8b9ad9"></circle><circle r="5" cx="1002.41" cy="547.25" fill="#8b9ad9"></circle><circle r="5" cx="949.32" cy="676.42" fill="#8b9ad9"></circle><circle r="5" cx="1153.49" cy="-64.7" fill="#8b9ad9"></circle><circle r="5" cx="1153.15" cy="688.1" fill="#8b9ad9"></circle><circle r="5" cx="1238.03" cy="97.84" fill="#8b9ad9"></circle><circle r="5" cx="1299.59" cy="225.02" fill="#8b9ad9"></circle><circle r="5" cx="1252.52" cy="366.45" fill="#8b9ad9"></circle><circle r="5" cx="1306.03" cy="557.82" fill="#8b9ad9"></circle><circle r="5" cx="1310.67" cy="640.69" fill="#8b9ad9"></circle><circle r="5" cx="1401.13" cy="-47.79" fill="#8b9ad9"></circle><circle r="5" cx="1452.64" cy="44.84" fill="#8b9ad9"></circle><circle r="5" cx="1388.8" cy="199.79" fill="#8b9ad9"></circle><circle r="5" cx="1399.03" cy="554.51" fill="#8b9ad9"></circle><circle r="5" cx="1396.8" cy="658.91" fill="#8b9ad9"></circle><circle r="5" cx="1541.65" cy="-95.24" fill="#8b9ad9"></circle><circle r="5" cx="1546.99" cy="43.43" fill="#8b9ad9"></circle><circle r="5" cx="1573.87" cy="259.28" fill="#8b9ad9"></circle><circle r="5" cx="1602.57" cy="390.44" fill="#8b9ad9"></circle><circle r="5" cx="1608.39" cy="554.27" fill="#8b9ad9"></circle><circle r="5" cx="1558.78" cy="680.28" fill="#8b9ad9"></circle></g><defs><mask id="SvgjsMask1008"><rect width="1440" height="560" fill="#ffffff"></rect></mask><radialGradient id="SvgjsRadialGradient1009"><stop stop-color="#ffffff" offset="0.1"></stop><stop stop-color="#1735b3" offset="0.2"></stop><stop stop-color="rgba(23, 53, 179, 0)" offset="1"></stop></radialGradient></defs></svg>